HIERARCHY
ROOT Hips
{
	OFFSET 0.00 0.00 0.00
	CHANNELS 6 Xposition Yposition Zposition Xrotation Yrotation Zrotation
	JOINT Spine
	{
		OFFSET 0.00000 3.24121 0.00000
		CHANNELS 3 Xrotation Yrotation Zrotation
		JOINT Head
		{
			OFFSET 0.00000 18.38296 0.00000
			CHANNELS 3 Xrotation Yrotation Zrotation
			End Site
			{
				OFFSET 0.00000 4.52755 0.00000
			}
		}
		JOINT LeftShoulder
		{
			OFFSET 0.00000 12.82826 0.00000
			CHANNELS 3 Xrotation Yrotation Zrotation
			JOINT LeftArm
			{
				OFFSET 7.74805 0.00000 0.00000
				CHANNELS 3 Xrotation Yrotation Zrotation
				JOINT LeftForeArm
				{
					OFFSET 10.63561 0.00000 0.00000
					CHANNELS 3 Yrotation Zrotation Xrotation
					JOINT LeftHand
					{
						OFFSET 8.34675 0.00000 0.00000
						CHANNELS 3 Xrotation Yrotation Zrotation
						JOINT LeftHandThumb1
						{
							OFFSET 0.00000 0.00000 0.00000
							CHANNELS 3 Xrotation Zrotation Yrotation
							End Site
							{
								OFFSET 0.00000 0.00000 3.93700
							}
						}
						End Site
						{
							OFFSET 3.93700 0.00000 0.00000
						}
					}
				}
			}
		}
		JOINT RightShoulder
		{
			OFFSET 0.00000 12.82826 0.00000
			CHANNELS 3 Xrotation Yrotation Zrotation
			JOINT RightArm
			{
				OFFSET -7.74805 0.00000 0.00000
				CHANNELS 3 Xrotation Yrotation Zrotation
				JOINT RightForeArm
				{
					OFFSET -10.63561 0.00000 0.00000
					CHANNELS 3 Yrotation Zrotation Xrotation
					JOINT RightHand
					{
						OFFSET -8.34675 0.00000 0.00000
						CHANNELS 3 Xrotation Yrotation Zrotation
						JOINT RightHandThumb1
						{
							OFFSET 0.00000 0.00000 0.00000
							CHANNELS 3 Xrotation Zrotation Yrotation
							End Site
							{
								OFFSET 0.00000 0.00000 3.93700
							}
						}
						End Site
						{
							OFFSET -3.93700 0.00000 0.00000
						}
					}
				}
			}
		}
	}
	JOINT LeftUpLeg
	{
		OFFSET 3.43402 0.00000 0.00000
		CHANNELS 3 Xrotation Yrotation Zrotation
		JOINT LeftLeg
		{
			OFFSET 0.00000 -15.71302 0.00000
			CHANNELS 3 Xrotation Yrotation Zrotation
			JOINT LeftFoot
			{
				OFFSET 0.00000 -14.43512 0.00000
				CHANNELS 3 Xrotation Yrotation Zrotation
				JOINT LeftToeBase
				{
					OFFSET 0.00000 -1.27828 4.77061
					CHANNELS 3 Xrotation Yrotation Zrotation
					End Site
					{
						OFFSET 0.00000 0.00000 2.95275
					}
				}
			}
		}
	}
	JOINT RightUpLeg
	{
		OFFSET -3.43402 0.00000 0.00000
		CHANNELS 3 Xrotation Yrotation Zrotation
		JOINT RightLeg
		{
			OFFSET 0.00000 -15.71302 0.00000
			CHANNELS 3 Xrotation Yrotation Zrotation
			JOINT RightFoot
			{
				OFFSET 0.00000 -14.43512 0.00000
				CHANNELS 3 Xrotation Yrotation Zrotation
				JOINT RightToeBase
				{
					OFFSET 0.00000 -1.27828 4.77061
					CHANNELS 3 Xrotation Yrotation Zrotation
					End Site
					{
						OFFSET 0.00000 0.00000 2.95275
					}
				}
			}
		}
	}
}
MOTION
Frames: 17
Frame Time: 0.008333
 -1.2316 32.7421 -4.4045 41.0850 1.9930 -0.5466 -45.9664 -1.9078 -1.6967 6.5025 -1.3876 -4.6431 31.0570 32.8179 22.0333 -58.4876 -4.3111 -33.8211 2.0316 0.0000 14.5525 1.1627 25.2863 -2.7204 33.1476 -0.0000 26.2537 30.8471 -35.5771 -23.9764 -54.7959 6.9778 42.4957 -3.4711 -0.0000 -10.0197 -0.5482 6.6190 4.7452 32.8623 0.0000 -24.3270 -37.3364 4.9108 2.8030 0.5719 0.0000 -0.0000 -1.9589 1.3036 -2.3480 2.2264 0.0000 -0.0000 -36.1302 -10.5479 -0.8178 -2.6998 0.0000 0.0000 -3.5788 -12.2116 14.8324 15.9555 0.0000 -0.0000
 -1.2302 32.7420 -4.4037 41.1032 2.0138 -0.5571 -45.9707 -1.8965 -1.7083 6.4703 -1.3748 -4.6558 31.1052 32.8298 21.9871 -58.4308 -4.4098 -33.8158 2.0286 0.0000 14.5490 1.1162 25.3065 -2.6098 33.1476 -0.0000 26.2537 30.8493 -35.5967 -23.9775 -54.7508 7.0023 42.4562 -3.3590 -0.0000 -10.0263 -0.5158 6.6311 4.4576 32.8623 0.0000 -24.3270 -37.3565 4.8990 2.7955 0.5735 0.0000 -0.0000 -1.9622 1.3004 -2.3576 2.2595 0.0000 -0.0000 -36.1476 -10.5580 -0.8275 -2.6954 -0.0000 -0.0000 -3.5710 -12.2255 14.8873 15.9533 -0.0000 0.0000
 -1.2281 32.7421 -4.4026 41.1146 2.0202 -0.5628 -45.9697 -1.8804 -1.7105 6.4441 -1.3506 -4.6722 31.1575 32.8497 21.9439 -58.3627 -4.4809 -33.8453 1.9723 0.0000 14.4822 1.0263 25.4227 -2.3897 33.1476 -0.0000 26.2537 30.8547 -35.5952 -23.9732 -54.7104 7.0137 42.4043 -3.2643 -0.0000 -10.0112 -0.5074 6.8103 4.2707 32.8623 0.0000 -24.3270 -37.3684 4.9179 2.7930 0.5732 -0.0000 0.0000 -1.9589 1.2723 -2.3686 2.2311 -0.0000 0.0000 -36.1568 -10.5504 -0.8305 -2.6941 -0.0000 -0.0000 -3.5744 -12.2366 14.8609 15.9369 0.0000 -0.0000
 -1.2267 32.7420 -4.4019 41.1338 2.0380 -0.5776 -45.9743 -1.8704 -1.7151 6.4190 -1.3151 -4.6757 31.1899 32.8655 21.9004 -58.3073 -4.5742 -33.8667 1.9537 0.0000 14.4854 1.0576 25.4478 -2.4601 33.1476 -0.0000 26.2537 30.8723 -35.6138 -23.9494 -54.6663 7.0733 42.3725 -3.1621 -0.0000 -9.9726 -0.4750 6.7380 4.0419 32.8623 0.0000 -24.3270 -37.3872 4.9107 2.7919 0.5699 -0.0000 -0.0000 -1.9520 1.2475 -2.3610 2.2057 0.0000 -0.0000 -36.1737 -10.5656 -0.8318 -2.6921 0.0000 0.0000 -3.5740 -12.2458 14.8796 15.9571 -0.0000 -0.0000
 -1.2250 32.7420 -4.4009 41.1523 2.0554 -0.5897 -45.9804 -1.8634 -1.7140 6.3989 -1.2932 -4.7108 31.2555 32.8786 21.8334 -58.2215 -4.6698 -33.8789 1.9463 0.0000 14.5651 1.0781 25.3591 -2.5158 33.1476 -0.0000 26.2537 30.8998 -35.6426 -23.9335 -54.6550 7.1035 42.3576 -3.0984 -0.0000 -9.9495 -0.4663 6.8121 3.9256 32.8623 0.0000 -24.3270 -37.4027 4.9078 2.7859 0.5623 -0.0000 -0.0000 -1.9484 1.2363 -2.3613 2.2105 -0.0000 0.0000 -36.1860 -10.5744 -0.8345 -2.6978 -0.0000 -0.0000 -3.5698 -12.2593 14.8500 15.9072 0.0000 0.0000
 -1.2232 32.7423 -4.4010 41.1753 2.0592 -0.6024 -45.9925 -1.8331 -1.7145 6.3869 -1.3052 -4.7162 31.2762 32.8979 21.8239 -58.1830 -4.7275 -33.9719 1.9307 0.0000 14.5427 0.9041 25.5177 -2.0979 33.1476 -0.0000 26.2537 30.9501 -35.6350 -23.8909 -54.6344 7.0876 42.3065 -3.0270 -0.0000 -9.9461 -0.4631 6.9319 3.8318 32.8623 0.0000 -24.3270 -37.4252 4.9113 2.7867 0.5530 0.0000 0.0000 -1.9496 1.2598 -2.4205 2.2222 -0.0000 -0.0000 -36.2077 -10.5631 -0.8318 -2.6932 -0.0000 -0.0000 -3.5700 -12.2782 14.8637 15.9228 0.0000 -0.0000
 -1.2211 32.7425 -4.3992 41.1892 2.0753 -0.6087 -46.0011 -1.8367 -1.7137 6.3893 -1.2604 -4.7588 31.3389 32.9021 21.7469 -58.1884 -4.7601 -33.9946 1.9575 0.0000 14.5347 1.0376 25.4210 -2.4160 33.1476 -0.0000 26.2537 31.0084 -35.6542 -23.8621 -54.6425 7.1320 42.3028 -2.9848 -0.0000 -9.9226 -0.4545 6.9868 3.7312 32.8623 0.0000 -24.3270 -37.4338 4.9179 2.7826 0.5475 0.0000 -0.0000 -1.9354 1.1948 -2.3801 2.2104 0.0000 0.0000 -36.2148 -10.5793 -0.8401 -2.6995 -0.0000 -0.0000 -3.5662 -12.2760 14.8604 15.8750 -0.0000 0.0000
 -1.2184 32.7424 -4.3977 41.1973 2.0965 -0.6210 -46.0004 -1.8326 -1.7131 6.3879 -1.2421 -4.7885 31.3602 32.8986 21.7154 -58.1868 -4.7589 -34.0698 1.9781 0.0000 14.5817 1.0450 25.3493 -2.4396 33.1476 -0.0000 26.2537 30.9949 -35.6456 -23.8756 -54.5689 7.1631 42.3095 -2.9473 -0.0000 -9.9637 -0.4416 7.0007 3.6185 32.8623 0.0000 -24.3270 -37.4367 4.9223 2.7698 0.5301 0.0000 0.0000 -1.9307 1.2102 -2.4236 2.2396 0.0000 -0.0000 -36.2177 -10.6116 -0.8469 -2.7028 0.0000 -0.0000 -3.5689 -12.2813 14.8600 15.9002 0.0000 -0.0000
 -1.2155 32.7422 -4.3959 41.2050 2.1107 -0.6353 -46.0010 -1.8244 -1.7052 6.3928 -1.2170 -4.8149 31.3662 32.8800 21.6832 -58.1579 -4.7617 -34.1437 1.9766 0.0000 14.5233 1.0111 25.3733 -2.3584 33.1476 -0.0000 26.2537 31.0421 -35.6681 -23.8413 -54.5834 7.2033 42.3283 -2.9497 -0.0000 -10.0270 -0.4362 7.0351 3.5569 32.8623 0.0000 -24.3270 -37.4346 4.9214 2.7674 0.5133 -0.0000 0.0000 -1.9322 1.1983 -2.4384 2.2596 0.0000 0.0000 -36.2128 -10.6148 -0.8477 -2.7145 -0.0000 -0.0000 -3.5837 -12.2840 14.8244 15.9620 -0.0000 0.0000
 -1.2138 32.7419 -4.3930 41.2123 2.1237 -0.6438 -46.0057 -1.8134 -1.7055 6.4095 -1.1928 -4.8397 31.3858 32.8828 21.6523 -58.2418 -4.7059 -34.2401 2.0039 0.0000 14.6744 1.0657 25.3756 -2.4855 33.1476 -0.0000 26.2537 31.0558 -35.6678 -23.8292 -54.5565 7.2412 42.3596 -2.9598 -0.0000 -10.0814 -0.4351 7.0661 3.5327 32.8623 0.0000 -24.3270 -37.4356 4.9375 2.7696 0.5090 -0.0000 -0.0000 -1.9250 1.1190 -2.4046 2.1956 0.0000 -0.0000 -36.2098 -10.6387 -0.8515 -2.7229 0.0000 0.0000 -3.5635 -12.2847 14.8621 15.8976 0.0000 -0.0000
 -1.2109 32.7416 -4.3905 41.2184 2.1474 -0.6580 -46.0100 -1.8067 -1.7060 6.4331 -1.1758 -4.8654 31.4097 32.8656 21.6275 -58.2892 -4.6414 -34.3477 2.0171 0.0000 14.7697 0.9033 25.6260 -2.0879 33.1476 -0.0000 26.2537 31.0930 -35.6680 -23.7942 -54.5769 7.2388 42.3776 -2.9737 -0.0000 -10.1334 -0.4369 7.0708 3.5448 32.8623 0.0000 -24.3270 -37.4339 4.9429 2.7570 0.4899 -0.0000 -0.0000 -1.9253 1.1225 -2.4527 2.2501 -0.0000 0.0000 -36.2019 -10.6559 -0.8580 -2.7365 -0.0000 0.0000 -3.5775 -12.2912 14.8355 15.9392 0.0000 0.0000
 -1.2086 32.7417 -4.3879 41.2231 2.1627 -0.6649 -46.0152 -1.7932 -1.7027 6.4681 -1.1512 -4.9025 31.4449 32.8483 21.5849 -58.3123 -4.6096 -34.4418 2.0569 0.0000 14.7913 1.0448 25.3027 -2.4433 33.1476 -0.0000 26.2537 31.1140 -35.6614 -23.7719 -54.6099 7.2068 42.4108 -2.9774 -0.0000 -10.1192 -0.4400 6.9553 3.6287 32.8623 0.0000 -24.3270 -37.4264 4.9386 2.7540 0.4788 -0.0000 0.0000 -1.9111 1.0724 -2.4078 2.2336 -0.0000 -0.0000 -36.1957 -10.6684 -0.8648 -2.7469 0.0000 -0.0000 -3.5775 -12.2995 14.8447 15.9184 -0.0000 -0.0000
 -1.2059 32.7416 -4.3859 41.2298 2.1781 -0.6726 -46.0187 -1.7768 -1.6991 6.4926 -1.1412 -4.9398 31.4828 32.8396 21.5531 -58.3155 -4.5722 -34.5620 2.0675 0.0000 14.7816 1.0826 25.2354 -2.5380 33.1476 -0.0000 26.2537 31.1233 -35.6623 -23.7622 -54.6604 7.1477 42.4796 -3.0121 -0.0000 -9.9933 -0.4435 7.0116 3.6288 32.8623 0.0000 -24.3270 -37.4269 4.9517 2.7456 0.4691 -0.0000 -0.0000 -1.9109 1.0393 -2.3952 2.2430 0.0000 -0.0000 -36.1939 -10.6844 -0.8730 -2.7571 -0.0000 -0.0000 -3.5727 -12.2881 14.8499 15.9154 0.0000 0.0000
 -1.2031 32.7413 -4.3834 41.2374 2.1976 -0.6816 -46.0242 -1.7696 -1.6953 6.5221 -1.1224 -4.9790 31.5283 32.8162 21.5047 -58.3166 -4.5094 -34.6660 2.0594 0.0000 14.9345 0.9871 25.3885 -2.3014 33.1476 -0.0000 26.2537 31.0991 -35.6515 -23.7688 -54.6521 7.1545 42.5517 -3.0723 -0.0000 -10.0597 -0.4487 7.0014 3.6763 32.8623 0.0000 -24.3270 -37.4219 4.9439 2.7363 0.4489 -0.0000 -0.0000 -1.9075 1.0290 -2.4166 2.2291 -0.0000 0.0000 -36.1927 -10.6944 -0.8816 -2.7620 0.0000 0.0000 -3.5752 -12.3096 14.8664 15.9187 0.0000 0.0000
 -1.2001 32.7411 -4.3811 41.2425 2.2122 -0.6905 -46.0312 -1.7650 -1.6945 6.5644 -1.0970 -4.9913 31.5535 32.7962 21.4796 -58.2895 -4.4745 -34.7719 2.0856 0.0000 14.9403 1.0982 25.3329 -2.5652 33.1476 -0.0000 26.2537 31.0665 -35.6021 -23.7963 -54.6037 7.1107 42.6143 -3.1027 -0.0000 -10.0926 -0.4716 6.9459 3.8940 32.8623 0.0000 -24.3270 -37.4216 4.9553 2.7298 0.4398 0.0000 -0.0000 -1.8934 1.0007 -2.4417 2.1761 -0.0000 0.0000 -36.1930 -10.7019 -0.8883 -2.7599 0.0000 0.0000 -3.5784 -12.3234 14.8685 15.9113 -0.0000 0.0000
 -1.1962 32.7409 -4.3790 41.2453 2.2247 -0.6954 -46.0344 -1.7603 -1.6837 6.5988 -1.0768 -5.0328 31.5828 32.7702 21.4398 -58.1442 -4.5013 -34.8886 2.0735 0.0000 14.6692 1.0776 25.3449 -2.5161 33.1476 -0.0000 26.2537 31.0928 -35.5924 -23.7950 -54.6564 7.0387 42.7089 -3.1228 -0.0000 -10.0262 -0.4689 6.9508 3.8688 32.8623 0.0000 -24.3270 -37.4192 4.9755 2.7143 0.4284 -0.0000 -0.0000 -1.9009 1.0148 -2.4844 2.2379 0.0000 -0.0000 -36.1845 -10.6957 -0.8967 -2.7733 -0.0000 0.0000 -3.5813 -12.3397 14.8549 15.9091 0.0000 -0.0000
 -1.1936 32.7410 -4.3764 41.2486 2.2309 -0.6976 -46.0399 -1.7605 -1.6751 6.6332 -1.0542 -5.0764 31.6258 32.7550 21.3780 -58.1172 -4.4858 -34.9980 2.1282 0.0000 14.7431 1.1514 25.2635 -2.6962 33.1476 -0.0000 26.2537 31.1327 -35.5898 -23.7643 -54.6888 7.0562 42.8002 -3.1680 -0.0000 -10.0911 -0.4745 6.8386 3.9783 32.8623 0.0000 -24.3270 -37.4103 4.9788 2.7089 0.4120 -0.0000 -0.0000 -1.8970 1.0117 -2.5136 2.2534 0.0000 -0.0000 -36.1803 -10.6923 -0.9029 -2.7794 0.0000 -0.0000 -3.5751 -12.3511 14.8646 15.8809 0.0000 -0.0000
